<?xml version="1.0" encoding="utf-8"?>
<!-- Generator: Adobe Illustrator 15.0.2, SVG Export Plug-In  -->
<!DOCTYPE svg PUBLIC "-//W3C//DTD SVG 1.1//EN" "http://www.w3.org/Graphics/SVG/1.1/DTD/svg11.dtd" [
	<!ENTITY ns_flows "http://ns.adobe.com/Flows/1.0/">
]>
<svg version="1.1"
	 xmlns="http://www.w3.org/2000/svg" xmlns:xlink="http://www.w3.org/1999/xlink" xmlns:a="http://ns.adobe.com/AdobeSVGViewerExtensions/3.0/"
	 x="0px" y="0px" width="800px" height="800px" viewBox="-130.652 -110.574 800 800"
	 overflow="visible" enable-background="new -130.652 -110.574 800 800" xml:space="preserve">
<defs>
</defs>
<linearGradient id="SVGID_1_" gradientUnits="userSpaceOnUse" x1="171.145" y1="1166.7456" x2="176.0359" y2="886.5461" gradientTransform="matrix(1.018 0 0 1.018 94.8405 -580.8353)">
	<stop  offset="0" style="stop-color:#DAE3ED"/>
	<stop  offset="1" style="stop-color:#F2F7FA"/>
</linearGradient>
<path fill="url(#SVGID_1_)" d="M83.009,590.688c-47.493-8.15-78.789-20.109-82.542-34.665c-0.712-2.787-0.396-6.099-0.396-8.894
	l-0.003-42.064c0-82.782,52.13-101.746,87.396-114.571l74.709-27.217c4.699-1.71,9.251-2.787,13.002-6.345
	c10.197-9.635,12.003-20.811,19.458-34.644c50.215,6.902,102.697,4.497,149.666-0.015l9.379,13.854
	c0.028,10.568,14.324,23.23,23.521,26.576l76.21,27.782c35.261,12.825,87.404,31.789,87.404,114.578l-0.01,48.008
	c-0.027,15.897-32.27,28.92-82.952,37.622C338.646,611.145,203.656,611.397,83.009,590.688L83.009,590.688z"/>
<polygon fill-rule="evenodd" clip-rule="evenodd" fill="#999999" points="268.17,435.067 231.379,487.77 193.114,467.053 
	233.611,497.603 270.406,438.59 307.418,497.944 347.702,467.053 309.436,487.77 272.645,435.067 268.17,435.067 "/>
<linearGradient id="SVGID_2_" gradientUnits="userSpaceOnUse" x1="271.5996" y1="435.0776" x2="270.2162" y2="314.9347">
	<stop  offset="0" style="stop-color:#F4C3A2"/>
	<stop  offset="1" style="stop-color:#EDBB8B"/>
</linearGradient>
<path fill="url(#SVGID_2_)" d="M189.291,350.82c-0.562-3.632,2.402-16.654,4.221-21.581c31.664-16.443,126.957-17.411,152.354-0.3
	c0.709,2.316,5.233,14.931,6.113,15.796c3.053,3.38-40.203,87.184-81.553,87.279C228.16,432.109,185.618,350.513,189.291,350.82
	L189.291,350.82z"/>
<linearGradient id="SVGID_3_" gradientUnits="userSpaceOnUse" x1="214.228" y1="955.0903" x2="208.0559" y2="601.4918" gradientTransform="matrix(0.9192 0 0 0.9192 76.3924 -517.0576)">
	<stop  offset="0.15" style="stop-color:#D8957C"/>
	<stop  offset="0.85" style="stop-color:#DB9E87"/>
</linearGradient>
<path fill="url(#SVGID_3_)" d="M194.63,322.289c-18.532-18.135-31.282-49.916-39.585-75.627
	c-11.506-0.17-23.285-21.526-27.523-49.807c-0.583-25.315,6.12-45.118,16.761-46.624c0.889-0.13,1.785-0.123,2.678,0
	c5.496-27.395,17.421-51.892,33.8-71.156c50.747-59.681,133.214-55.681,180.565,0c16.368,19.251,28.297,43.762,33.796,71.149
	c0.886-0.123,1.776-0.123,2.661,0c7.268,1.035,12.688,10.616,15.213,24.654c0.045,5.656-0.275,11.632-1.018,17.786
	c-3.547,29.465-15.312,52.464-27.03,53.937c-8.293,26.438-21.353,58.365-40.645,75.68c0,5.18,4.409,10.46,1.562,13.139
	c-17.363,16.368-48.476,25.397-74.452,25.466s-60.117-9.881-75.221-25.459C190.998,330.077,194.64,329.417,194.63,322.289
	L194.63,322.289z"/>
<linearGradient id="SVGID_4_" gradientUnits="userSpaceOnUse" x1="192.3022" y1="939.0024" x2="192.3022" y2="580.1216" gradientTransform="matrix(0.9192 0 0 0.9192 92.7025 -515.3881)">
	<stop  offset="0" style="stop-color:#F4C3A2"/>
	<stop  offset="1" style="stop-color:#FADDB6"/>
</linearGradient>
<path fill="url(#SVGID_4_)" d="M194.63,322.289c-18.044-18.617-31.282-49.916-39.585-75.62
	c-12.062-0.191-24.429-23.66-28.085-54.004c-3.807-31.579,3.25-58.605,15.761-60.369c0.89-0.13,1.789-0.13,2.678,0
	c5.492-27.4,17.421-51.899,33.803-71.164c50.743-59.681,133.212-55.673,180.562,0.007c16.368,19.244,28.297,43.756,33.796,71.15
	c0.89-0.123,1.778-0.123,2.657,0c12.506,1.778,19.562,28.812,15.76,60.376c-3.547,29.465-15.312,52.464-27.03,53.937
	c-8.293,26.438-21.786,57.901-40.645,75.673c-17.366,16.375-48.472,25.404-74.451,25.473
	C243.871,347.822,209.733,337.873,194.63,322.289L194.63,322.289z"/>
<linearGradient id="SVGID_5_" gradientUnits="userSpaceOnUse" x1="257.0288" y1="937.3843" x2="257.0288" y2="679.3853" gradientTransform="matrix(0.8867 0 0 0.8867 92.0027 -495.1042)">
	<stop  offset="0" style="stop-color:#FAD3B9"/>
	<stop  offset="1" style="stop-color:#FFEFD9"/>
</linearGradient>
<path fill="url(#SVGID_5_)" d="M377.617,167.54c3.771,37.187,1.315,72.396-4.041,90.728c-6.058,20.708-18.62,40.375-32.263,53.233
	c-16.753,15.796-46.757,24.505-71.817,24.573c-2.201-38.011-7.986-99.3-9.111-187.328c-0.354-28.028,64.308-52.465,91.933-36.24
	C373.42,124.895,377.049,161.931,377.617,167.54L377.617,167.54z"/>
<path d="M159.198,155.785c-1.162-14.079-8.228-21.479-13.795-23.489C123.429,13.71,259.329-29.787,337.657,24.974
	c43.357,7.176,60.424,50.68,58.56,107.308c-10.619,0.021-14.746,5.614-16.991,22.713c-1.4,10.685-8.337,12.388-10.552,1.213
	c-5.688-28.669-3.758-67.293-30.703-66.101c-32.191,1.438-40.773,17.582-138.363,24.825c-19.806,1.465-27.367,21.165-30.402,42.999
	C167.723,168.589,160.359,169.863,159.198,155.785L159.198,155.785z"/>
<path d="M83.009,590.688c-47.493-8.15-78.789-20.109-82.542-34.665c0,0.007,3.131-45.901,4.845-59.327
	c0-2.092,128.312-9.199,211.618,17.65c6.893,36.008,13.701,71.408,18.198,91.252C183.403,604.051,132.022,599.096,83.009,590.688
	L83.009,590.688z"/>
<linearGradient id="SVGID_6_" gradientUnits="userSpaceOnUse" x1="33.7319" y1="1077.6636" x2="33.7319" y2="904.2593" gradientTransform="matrix(1.018 0 0 1.018 76.7785 -582.6839)">
	<stop  offset="0" style="stop-color:#0B0E12"/>
	<stop  offset="1" style="stop-color:#4E5C6B"/>
</linearGradient>
<path fill="url(#SVGID_6_)" d="M5.312,496.69c4.375-73.623,48.744-92.248,82.413-104.499l74.71-27.211
	c4.702-1.71,21.25-23.592,25.005-27.155c5.489,35.892,18.079,110.128,29.482,176.521C146.428,513.637,79.091,509.119,5.312,496.69
	L5.312,496.69z"/>
<linearGradient id="SVGID_7_" gradientUnits="userSpaceOnUse" x1="15.2715" y1="1129.2964" x2="19.2014" y2="904.1533" gradientTransform="matrix(1.018 0 0 1.018 76.7785 -582.6839)">
	<stop  offset="0" style="stop-color:#4F535E"/>
	<stop  offset="1" style="stop-color:#768594"/>
</linearGradient>
<path fill="url(#SVGID_7_)" d="M11.073,568.459c-3.908-2.276-9.172-6.862-10.606-12.443c-0.716-2.773-0.396-6.092-0.396-8.894
	l-0.003-42.064c0-82.775,52.13-101.739,87.396-114.564l74.709-27.217c4.699-1.71,21.251-23.599,25.006-27.155
	c0.722,4.852,1.561,8.824,2.287,14.61c-5.395,6.385-27.892,34.398-30.338,35.291l-55.807,20.328
	c-35.265,12.824-92.564,22.011-92.564,111.497l0.007,42.065C10.763,562.585,10.47,565.747,11.073,568.459L11.073,568.459z"/>
<path d="M159.614,464.867l-15.779-23.755c2.732-6.876,14.583-74.278,18.337-77.835l-10.079,75.217l17.991,28.158l-16.144,24.409
	l36.338,112.336l-9.905-0.729l-37.063-110.23L159.614,464.867L159.614,464.867z"/>
<path d="M457.848,590.695c47.493-8.15,78.787-20.109,82.543-34.672c0,0-5.693-74.626-11.371-86.121
	c-18.879-23.236-196.281-7.019-204.333,40.451c-6.679,39.373-14.137,74.85-18.958,95.252
	C357.453,604.057,408.834,599.104,457.848,590.695L457.848,590.695z"/>
<linearGradient id="SVGID_8_" gradientUnits="userSpaceOnUse" x1="292.3281" y1="1073.4595" x2="295.305" y2="902.9144" gradientTransform="matrix(1.018 0 0 1.018 130.4958 -582.6829)">
	<stop  offset="0" style="stop-color:#0B0E12"/>
	<stop  offset="1" style="stop-color:#4E5C6B"/>
</linearGradient>
<path fill="url(#SVGID_8_)" d="M532.189,468.867c-13.228-51.571-53.893-66.372-83.041-76.983l-74.713-27.209
	c-4.699-1.711-17.002-24.989-20.758-28.546c-5.457,36.688-18.231,110.618-28.998,174.17
	C397.481,503.92,463.908,491.381,532.189,468.867L532.189,468.867z"/>
<linearGradient id="SVGID_9_" gradientUnits="userSpaceOnUse" x1="-369.791" y1="1129.3013" x2="-365.8611" y2="904.1586" gradientTransform="matrix(-1.018 0 0 1.018 72.1112 -582.6829)">
	<stop  offset="0" style="stop-color:#4F535E"/>
	<stop  offset="1" style="stop-color:#768594"/>
</linearGradient>
<path fill="url(#SVGID_9_)" d="M529.783,568.466c3.908-2.276,9.176-6.862,10.607-12.443c0.715-2.774,0.395-6.093,0.395-8.894
	l0.004-42.064c0-82.775-52.131-101.74-87.396-114.564l-74.71-27.216c-4.698-1.711-21.25-23.6-25.006-27.156
	c-0.715,3.462-2.081,12.333-2.255,14.665c5.394,6.392,27.86,34.344,30.308,35.237l55.807,20.327
	c35.264,12.825,92.562,22.011,92.562,111.49l-0.003,42.065C530.097,562.592,530.387,565.754,529.783,568.466L529.783,568.466z"/>
<path d="M381.243,464.874l15.778-23.755c-2.732-6.876-14.583-74.277-18.338-77.834l10.079,75.217l-17.99,28.157l16.147,24.409
	l-36.342,112.336l9.904-0.729l37.064-110.23L381.243,464.874L381.243,464.874z"/>
<linearGradient id="SVGID_10_" gradientUnits="userSpaceOnUse" x1="163.8496" y1="1189.856" x2="163.8496" y2="1024.6519" gradientTransform="matrix(1.018 0 0 1.018 103.634 -604.4818)">
	<stop  offset="0.01" style="stop-color:#0088FF"/>
	<stop  offset="0.99" style="stop-color:#33AAFF"/>
</linearGradient>
<path fill-rule="evenodd" clip-rule="evenodd" fill="url(#SVGID_10_)" d="M270.406,438.583l32.191,51.237l-16.283,24.137
	l19.414,91.647c-19.581,1.669-55.064,1.396-70.601-0.007l19.183-91.668l-16.092-24.109L270.406,438.583L270.406,438.583z"/>
<polygon fill-rule="evenodd" clip-rule="evenodd" fill="#0084E3" points="270.406,438.583 302.598,489.821 299.705,494.1 
	269.306,460.26 241.322,494.461 238.218,489.821 270.406,438.583 "/>
<path fill="#4C4C4C" d="M145.402,130.741C123.429,12.15,259.329-31.346,337.657,23.421c43.357,7.168,60.424,50.673,58.56,107.307
	c-6.221-56.785-35.098-88.083-61.844-85.343C302.335,13.942,141.838-0.177,145.402,130.741L145.402,130.741z"/>
<path fill="#333333" d="M338.711,80.786c-32.951,1.472-41.738,17.996-141.639,25.41c-8.869,0.654-24.194,6.883-26.747,18.004
	c1.53-25.656,27.03-33.896,63.528-41.922C278.035,72.567,340.057,63.954,338.711,80.786L338.711,80.786z"/>
<polygon fill-rule="evenodd" clip-rule="evenodd" fill="#0084E3" points="286.314,513.93 288.273,523.205 252.392,523.095 
	254.311,513.93 286.314,513.93 "/>
</svg>
